# 3ds Max Wavefront OBJ Exporter v0.97b - (c)2007 guruware
# File Created: 21.10.2020 01:03:56

#
# object Plane001
#

v  -105.1313 0.0000 104.5711
v  104.0110 0.0000 104.5711
v  -105.1313 0.0000 -104.5711
v  104.0110 0.0000 -104.5711
v  -105.1313 46.9277 104.5711
v  104.0110 46.9277 104.5711
v  -105.1313 46.9277 -104.5711
v  104.0110 46.9277 -104.5711
v  -105.1313 149.3247 104.5711
v  104.0110 149.3247 104.5711
v  -105.1313 149.3247 -104.5711
v  104.0110 149.3247 -104.5711
# 12 vertices

vn 0.0000 1.0000 -0.0000
vn 0.0000 1.0000 -0.0000
vn 0.0000 1.0000 -0.0000
vn 0.0000 1.0000 -0.0000
vn 0.0000 1.0000 -0.0000
vn 0.0000 1.0000 -0.0000
vn 1.0000 0.0000 -0.0000
vn 1.0000 0.0000 -0.0000
vn 1.0000 0.0000 -0.0000
vn 1.0000 0.0000 -0.0000
vn 1.0000 0.0000 -0.0000
vn 1.0000 0.0000 -0.0000
vn 0.0000 0.0000 1.0000
vn 0.0000 0.0000 1.0000
vn 0.0000 0.0000 1.0000
vn 0.0000 0.0000 1.0000
vn 0.0000 0.0000 1.0000
vn 0.0000 0.0000 1.0000
vn -1.0000 0.0000 -0.0000
vn -1.0000 0.0000 -0.0000
vn -1.0000 0.0000 -0.0000
vn -1.0000 0.0000 -0.0000
vn -1.0000 0.0000 -0.0000
vn -1.0000 0.0000 -0.0000
vn 1.0000 0.0000 -0.0000
vn 1.0000 0.0000 -0.0000
vn 1.0000 0.0000 -0.0000
vn 1.0000 0.0000 -0.0000
vn 1.0000 0.0000 -0.0000
vn 1.0000 0.0000 -0.0000
vn 0.0000 0.0000 1.0000
vn 0.0000 0.0000 1.0000
vn 0.0000 0.0000 1.0000
vn 0.0000 0.0000 1.0000
vn 0.0000 0.0000 1.0000
vn 0.0000 0.0000 1.0000
vn -1.0000 0.0000 -0.0000
vn -1.0000 0.0000 -0.0000
vn -1.0000 0.0000 -0.0000
vn -1.0000 0.0000 -0.0000
vn -1.0000 0.0000 -0.0000
vn -1.0000 0.0000 -0.0000
# 42 vertex normals

vt 0.0000 0.0000 0.0000
vt 1.0000 0.0000 0.0000
vt 0.0000 1.0000 0.0000
vt 1.0000 1.0000 0.0000
vt 0.0000 1.0000 0.0000
vt 0.0000 0.0000 0.0000
vt 1.0000 1.0000 0.0000
vt 1.0000 0.0000 0.0000
vt 0.0000 1.0000 0.0000
vt 0.0000 0.0000 0.0000
vt 1.0000 1.0000 0.0000
vt 1.0000 0.0000 0.0000
# 12 texture coords

o Plane001
g Plane001
f 1/1/1 2/2/2 4/4/3 
f 4/4/4 3/3/5 1/1/6 
f 1/1/7 3/3/8 7/5/9 
f 7/5/10 5/6/11 1/1/12 
f 3/3/13 4/4/14 8/7/15 
f 8/7/16 7/5/17 3/3/18 
f 4/4/19 2/2/20 6/8/21 
f 6/8/22 8/7/23 4/4/24 
f 5/6/25 7/5/26 11/9/27 
f 11/9/28 9/10/29 5/6/30 
f 7/5/31 8/7/32 12/11/33 
f 12/11/34 11/9/35 7/5/36 
f 8/7/37 6/8/38 10/12/39 
f 10/12/40 12/11/41 8/7/42 
# 14 faces

